<?xml version="1.0" encoding="UTF-8"?>
<svg version="1.1" xmlns="http://www.w3.org/2000/svg" width="431" height="431">
<path d="M0 0 C0.89868805 0.00054382 1.7973761 0.00108765 2.72329712 0.00164795 C17.86090949 0.04360596 32.37157159 1.0339789 47.1875 4.375 C48.14060059 4.58930664 49.09370117 4.80361328 50.07568359 5.02441406 C90.08669891 14.36598331 124.69348321 35.18278809 154.1875 63.375 C155.20263672 64.32826172 155.20263672 64.32826172 156.23828125 65.30078125 C192.66691846 100.38951457 215.58045742 154.61124087 216.5234375 204.89453125 C216.56412876 208.32577103 216.57034222 211.75605238 216.5625 215.1875 C216.56168427 216.53553207 216.56168427 216.53553207 216.56085205 217.91079712 C216.51889404 233.04840949 215.5285211 247.55907159 212.1875 262.375 C211.97319336 263.32810059 211.75888672 264.28120117 211.53808594 265.26318359 C202.19651669 305.27419891 181.37971191 339.88098321 153.1875 369.375 C152.23423828 370.39013672 152.23423828 370.39013672 151.26171875 371.42578125 C116.17298543 407.85441846 61.95125913 430.76795742 11.66796875 431.7109375 C8.23672897 431.75162876 4.80644762 431.75784222 1.375 431.75 C0.47631195 431.74945618 -0.4223761 431.74891235 -1.34829712 431.74835205 C-16.48590949 431.70639404 -30.99657159 430.7160211 -45.8125 427.375 C-47.24215088 427.05354004 -47.24215088 427.05354004 -48.70068359 426.72558594 C-88.71169891 417.38401669 -123.31848321 396.56721191 -152.8125 368.375 C-153.82763672 367.42173828 -153.82763672 367.42173828 -154.86328125 366.44921875 C-191.29191846 331.36048543 -214.20545742 277.13875913 -215.1484375 226.85546875 C-215.18912876 223.42422897 -215.19534222 219.99394762 -215.1875 216.5625 C-215.18695618 215.66381195 -215.18641235 214.7651239 -215.18585205 213.83920288 C-215.14389404 198.70159051 -214.1535211 184.19092841 -210.8125 169.375 C-210.59819336 168.42189941 -210.38388672 167.46879883 -210.16308594 166.48681641 C-200.82151669 126.47580109 -180.00471191 91.86901679 -151.8125 62.375 C-150.85923828 61.35986328 -150.85923828 61.35986328 -149.88671875 60.32421875 C-111.57679565 20.55138689 -54.39019609 -0.12430323 0 0 Z " fill="#000000" transform="translate(214.8125,-0.375)"/>
<path d="M0 0 C2.18003204 0.00373626 4.36006577 0.00658033 6.5401001 0.00857544 C12.24134057 0.01616364 17.94247701 0.03577015 23.64367676 0.0579834 C29.47597853 0.0785462 35.30829732 0.08759935 41.140625 0.09765625 C52.55733704 0.1190211 63.97397233 0.15309809 75.390625 0.1953125 C77.49336951 5.06864232 79.59287531 9.94334992 81.68945312 14.81933594 C82.40244151 16.47628988 83.11629784 18.13287064 83.83105469 19.7890625 C84.8610364 22.17609533 85.88784119 24.56447351 86.9140625 26.953125 C87.23184662 27.68773956 87.54963074 28.42235413 87.87704468 29.17922974 C89.57316649 33.13627822 91.09547046 37.08362101 92.390625 41.1953125 C91.53780772 41.19612965 91.53780772 41.19612965 90.6677618 41.19696331 C76.76757372 41.21199818 62.86770786 41.2550252 48.96769619 41.32740307 C42.24543648 41.36190471 35.52337867 41.38738894 28.80102539 41.39086914 C22.30391198 41.39517244 15.8073053 41.42380406 9.31035042 41.46874428 C6.8415021 41.48165437 4.37259295 41.48605021 1.90371513 41.48146629 C-19.61291848 41.45084395 -36.31542702 44.1238113 -52.76953125 59.265625 C-64.27704382 71.33507555 -69.01063466 86.40420874 -68.90771484 102.7578125 C-68.49925192 118.95425555 -61.79960664 133.19076864 -50.43359375 144.5703125 C-34.88065 159.02616063 -16.78475322 162.61957697 3.8515625 162.70703125 C5.37856439 162.72392796 6.90555279 162.74208465 8.43252563 162.76142883 C12.40087666 162.8083944 16.36917307 162.83854589 20.33770752 162.86486816 C24.40753982 162.89494762 28.47718454 162.94138173 32.546875 162.98632812 C40.49469829 163.07175089 48.44253976 163.13936307 56.390625 163.1953125 C58.01251527 166.80050304 59.6296724 170.40777917 61.24291992 174.0168457 C62.054775 175.83064528 62.87010997 177.64288602 63.68554688 179.45507812 C67.18212462 187.2848381 70.39772952 195.16033939 73.390625 203.1953125 C61.61041405 203.28868021 49.83029354 203.35941217 38.04978561 203.40256119 C32.57748946 203.42328797 27.10544954 203.45132741 21.63330078 203.49707031 C16.33587436 203.54106709 11.03869176 203.56456112 5.7410965 203.57482147 C3.73684103 203.58211758 1.73259635 203.59635936 -0.27155304 203.61823273 C-20.0444979 203.82512281 -37.8957027 201.29365392 -55.609375 192.1953125 C-56.65351562 191.67195312 -57.69765625 191.14859375 -58.7734375 190.609375 C-83.02797251 177.49016741 -99.01017462 154.16631323 -106.87109375 128.15234375 C-114.66907581 99.73127209 -109.04543615 69.94246786 -94.74609375 44.671875 C-91.59473186 39.37642256 -87.75187869 34.74178374 -83.609375 30.1953125 C-82.67351562 29.13763672 -82.67351562 29.13763672 -81.71875 28.05859375 C-69.37589156 14.86003294 -52.09831999 6.04726176 -34.609375 2.1953125 C-33.88483124 2.02664169 -33.16028748 1.85797089 -32.41378784 1.68418884 C-21.69953105 -0.47147882 -10.87484142 -0.05502349 0 0 Z " fill="#FDFDFD" transform="translate(139.609375,125.8046875)"/>
<path d="M0 0 C14.52 0 29.04 0 44 0 C41.96433778 6.10698667 39.85782224 11.9298455 37.296875 17.80078125 C36.94264969 18.62171265 36.58842438 19.44264404 36.22346497 20.28845215 C35.46395708 22.04822233 34.70291449 23.80733081 33.94046021 25.56582642 C31.89287965 30.29007961 29.85852224 35.02001762 27.82421875 39.75 C27.41239853 40.7071138 27.00057831 41.6642276 26.57627869 42.65034485 C22.84078776 51.34463642 19.18632569 60.07118687 15.5625 68.8125 C9.98811685 82.25079564 4.35496531 95.66318886 -1.3125 109.0625 C-7.72136429 124.21514564 -14.09581329 139.38161921 -20.4375 154.5625 C-27.19977636 170.7490815 -34.05746275 186.8897533 -41 203 C-60.47 203 -79.94 203 -100 203 C-104.95 191.3675 -104.95 191.3675 -110 179.5 C-118.44511529 159.66574166 -126.90974797 139.83994378 -135.40020752 120.02505493 C-136.1842165 118.19516374 -136.9679633 116.36516023 -137.75170898 114.53515625 C-139.22309605 111.09996011 -140.69536818 107.66514483 -142.16796875 104.23046875 C-142.5993364 103.22328293 -143.03070404 102.21609711 -143.47514343 101.1783905 C-145.69084318 96.01407468 -147.94222988 90.87286635 -150.2948761 85.76924133 C-151 84 -151 84 -151 82 C-136.48 82 -121.96 82 -107 82 C-99.69912321 98.51260035 -92.51396283 115.06594441 -85.45336914 131.68261719 C-83.90870763 135.31775875 -82.36174757 138.95191595 -80.81445312 142.5859375 C-79.82278719 144.91661158 -78.83124581 147.24733866 -77.83984375 149.578125 C-77.381577 150.65507629 -76.92331024 151.73202759 -76.45115662 152.84161377 C-76.02633499 153.84166443 -75.60151337 154.84171509 -75.16381836 155.87207031 C-74.79284531 156.74486633 -74.42187225 157.61766235 -74.03965759 158.51690674 C-72.99955386 161.00106556 -71.99320778 163.49676519 -71 166 C-61.21242404 144.10219694 -51.8847393 122.00788517 -42.51611328 99.92871094 C-40.1886765 94.44374531 -37.85863148 88.95989231 -35.52734375 83.4765625 C-35.17410538 82.64569626 -34.820867 81.81483002 -34.45692444 80.95878601 C-33.75504941 79.30788004 -33.05317059 77.65697569 -32.35128784 76.006073 C-30.62958531 71.95605851 -28.90851195 67.90577673 -27.1875 63.85546875 C-26.84851181 63.05768509 -26.50952362 62.25990143 -26.16026306 61.4379425 C-23.95480541 56.24742764 -21.74962045 51.05679697 -19.54450989 45.86613464 C-18.00443166 42.24101816 -16.46418704 38.6159724 -14.92391968 34.99093628 C-13.8512117 32.46611531 -12.77874982 29.9411899 -11.70629883 27.41625977 C-11.03988934 25.84781347 -10.37346744 24.27937245 -9.70703125 22.7109375 C-9.42017456 22.03537308 -9.13331787 21.35980865 -8.83776855 20.66377258 C-5.90754107 13.76903158 -2.95112853 6.88596657 0 0 Z " fill="#FDFDFD" transform="translate(357,126)"/>
</svg>
